PathFileType	4	(X/Y/Z)	C:/Users/opensim2020/Desktop/walking_exp_matlab/subject02_walking07_straight_01.trc	
DataRate	CameraRate	NumFrames	NumMarkers	Units	OrigDataRate	OrigDataStartFrame	OrigNumFrames	
100.00	100.00	8	50	mm	100.00	780	176	
Frame#	Time	LFHD			RFHD			LBHD			RBHD			C7			T10			CLAV			STRN			RBAK			LSHO			LUPA			LELB			LFRM			LWRA			LWRB			LFIN			RSHO			RUPA			RELB			RFRM			RWRA			RWRB			RFIN			LASI			RASI			LPSI			RPSI			LTHI			LKNE			LTIB			LANK			LHEE			LTOE			RTHI			RKNE			RTIB			RANK			RHEE			RTOE			*39			*40			*41			*42			*43			*44			*45			*46			*47			*48			*49			
		X1	Y1	Z1	X2	Y2	Z2	X3	Y3	Z3	X4	Y4	Z4	X5	Y5	Z5	X6	Y6	Z6	X7	Y7	Z7	X8	Y8	Z8	X9	Y9	Z9	X10	Y10	Z10	X11	Y11	Z11	X12	Y12	Z12	X13	Y13	Z13	X14	Y14	Z14	X15	Y15	Z15	X16	Y16	Z16	X17	Y17	Z17	X18	Y18	Z18	X19	Y19	Z19	X20	Y20	Z20	X21	Y21	Z21	X22	Y22	Z22	X23	Y23	Z23	X24	Y24	Z24	X25	Y25	Z25	X26	Y26	Z26	X27	Y27	Z27	X28	Y28	Z28	X29	Y29	Z29	X30	Y30	Z30	X31	Y31	Z31	X32	Y32	Z32	X33	Y33	Z33	X34	Y34	Z34	X35	Y35	Z35	X36	Y36	Z36	X37	Y37	Z37	X38	Y38	Z38	X39	Y39	Z39	X40	Y40	Z40	X41	Y41	Z41	X42	Y42	Z42	X43	Y43	Z43	X44	Y44	Z44	X45	Y45	Z45	X46	Y46	Z46	X47	Y47	Z47	X48	Y48	Z48	X49	Y49	Z49	X50	Y50	Z50	

133	1.320	1341.81152	226.64444	1735.84607	1484.79663	219.45593	1717.63025	1324.74744	118.14598	1631.71875	1465.41260	99.53686	1609.50232	1396.25903	74.92863	1503.15479	1412.35388	20.46407	1229.93396	1392.04150	214.16484	1436.71899	1402.22937	264.84244	1262.76147	1460.98547	14.25179	1332.27161	1221.44775	155.29849	1479.08044	1130.70837	189.90202	1288.64514	1108.77051	243.60017	1156.56494	1107.81104	330.39725	1053.30286	1153.91333	444.52222	991.95172	1118.92371	411.06714	962.53619	1116.74512	467.60107	930.41730	1586.14624	147.50145	1471.92676	1669.10632	89.43523	1290.41797	1683.36816	84.52103	1143.28955	1707.61475	90.57412	1023.41290	1691.45898	112.26759	888.84747	1723.81238	66.08687	895.71588	1727.11670	89.15865	826.17719	1268.51526	234.56096	961.15723	1525.30103	267.19983	960.32434	1376.72681	36.47317	1011.86176	1490.14319	44.29709	1011.42303	1239.72205	92.53098	665.28308	1278.63428	12.86240	479.18130	1292.25635	-108.77888	326.54102	1333.73865	-181.40544	111.26707	1386.76147	-219.86009	100.15585	1327.24634	-41.76605	30.99066	1611.34216	261.72989	663.94891	1566.50781	314.56412	463.60770	1568.79541	323.66220	275.21039	1535.71411	366.51465	86.41577	1479.00476	354.23462	30.37655	1552.69458	529.04944	63.83378	1422.39282	105.11552	1774.09485	-3357.35693	2845.87402	1034.16772																											 
134	1.330	1343.83789	235.95758	1735.87292	1486.93250	229.07269	1717.44165	1326.55200	128.08342	1631.11426	1467.45068	109.75594	1608.62524	1397.80469	84.43701	1502.10278	1414.47571	31.69451	1229.25769	1393.31604	224.43593	1436.35242	1403.61145	275.95300	1263.06445	1462.38635	24.97898	1331.43372	1222.73267	164.74194	1478.25354	1132.58838	197.58000	1287.13037	1110.98926	249.17863	1154.10730	1109.29993	334.23248	1049.46521	1154.65393	447.08902	985.51270	1120.15930	412.97113	956.89984	1117.51685	468.57431	923.48248	1587.65039	157.34174	1471.22388	1670.85950	99.92947	1289.72656	1684.53125	95.10303	1142.30066	1709.01318	101.75270	1022.53986	1692.87048	123.94572	888.04340	1724.97803	77.51260	894.68744	1728.62976	101.20872	825.51080	1269.86511	247.49646	960.66559	1526.57422	280.24124	960.32520	1379.29248	49.18558	1010.75171	1492.78589	57.72198	1010.34570	1240.48596	104.46985	665.20776	1278.60413	24.08191	479.69922	1292.33386	-100.86764	329.88925	1332.61487	-178.27600	116.15614	1385.67529	-216.35820	106.31607	1327.15942	-41.38993	31.09559	1612.00513	271.58282	663.12390	1568.06213	322.52704	462.08536	1566.91370	332.09882	274.18808	1538.70142	376.26825	87.37460	1482.06189	359.04855	33.38647	1551.18469	539.23242	57.13144	1424.21985	114.07380	1773.04614	-3357.24756	2845.83472	1034.03674																											 
135	1.340	1345.95862	245.23686	1736.79004	1488.90649	238.36533	1717.84631	1328.30334	137.97049	1631.15295	1469.13879	119.82030	1608.15613	1399.29968	94.06220	1501.73792	1416.31970	43.10014	1228.88062	1394.67175	234.61156	1436.56140	1404.99390	286.95001	1263.74512	1463.74097	35.66203	1330.96692	1223.81860	173.99025	1477.87939	1134.48340	205.22371	1285.75293	1113.40637	254.54810	1151.90222	1111.29639	336.70618	1045.18237	1155.49048	449.01184	978.88763	1121.07166	413.79462	951.04163	1118.29590	468.73264	916.26337	1589.34644	167.10953	1470.83740	1672.39380	110.45213	1289.01270	1686.31641	106.38235	1141.58215	1710.48853	113.21101	1021.76465	1694.26099	135.98518	887.34387	1726.37402	89.59124	893.87225	1729.97498	113.38555	824.71423	1271.42419	260.53156	960.28961	1527.91248	292.93045	960.46667	1381.74451	61.74873	1009.94025	1495.48608	71.20648	1010.21533	1241.19055	116.76348	665.21271	1278.33044	36.33343	480.37686	1292.31091	-91.99448	333.62982	1331.27295	-174.39760	121.64325	1384.52844	-212.10794	113.43372	1326.85046	-40.84871	31.12772	1612.89966	279.69855	663.67499	1570.59668	332.23178	463.45636	1572.70337	343.06940	276.00891	1542.29553	384.84592	87.24213	1484.97876	361.71060	35.52929	1549.42749	545.22455	52.92855	1426.46570	123.03177	1772.83728	-3360.19653	2845.22949	1033.90210																											 
136	1.350	1348.15576	254.45279	1738.13989	1490.83862	247.31424	1718.55676	1330.09558	147.73668	1631.77832	1470.77783	129.65733	1608.27380	1400.86841	104.15916	1502.15625	1417.82898	54.29811	1228.76599	1396.07861	244.63795	1437.32813	1406.29883	297.93713	1264.81299	1465.33289	46.26268	1330.93652	1224.83386	183.25098	1477.92798	1136.75964	213.26881	1284.53845	1115.90186	259.70361	1149.87781	1112.98303	339.75958	1041.48999	1156.34985	450.26273	972.13263	1122.18201	414.09775	945.18286	1119.15906	468.06583	908.90100	1590.85754	176.81277	1470.62158	1673.84009	121.31310	1288.54395	1687.48914	117.64824	1140.91663	1711.76770	124.85835	1021.13080	1695.75928	148.46983	887.10248	1727.52356	101.78832	893.32660	1731.52917	126.19000	824.65491	1273.23523	273.57278	959.97968	1529.17578	305.38757	960.97498	1383.86072	74.26958	1009.67621	1498.08777	85.16254	1011.39252	1242.11438	129.61993	665.44965	1277.86487	49.79008	481.17123	1292.17126	-82.03042	337.90503	1329.86829	-169.85255	127.62093	1383.29224	-206.63393	120.76028	1326.06152	-40.73741	31.06459	1614.12769	288.02393	665.05542	1572.15564	344.28870	466.56644	1576.75269	355.72833	278.84549	1542.23560	387.07379	86.65463	1485.43884	361.88489	36.02464	1550.65051	545.39996	48.40219	1428.90466	131.96852	1773.18408	-3360.21313	2845.10889	1033.97266																											 
137	1.360	1350.25854	263.40939	1739.57092	1492.87195	256.41956	1719.55957	1331.88367	157.43896	1632.78589	1472.48193	139.40994	1608.71838	1402.48499	114.59909	1503.00793	1419.09424	65.40395	1229.06689	1397.50879	254.61710	1438.52771	1407.67871	309.01974	1266.28662	1466.80066	57.02588	1331.06958	1225.71191	192.64439	1478.34521	1138.84924	220.83307	1283.55334	1118.56567	264.71759	1148.05713	1114.85254	341.33878	1037.89722	1157.25073	450.78387	965.33746	1123.42993	413.50833	939.44324	1120.03113	466.48676	901.63171	1592.97375	187.15546	1471.13843	1675.10254	132.16806	1288.32300	1689.18555	129.63643	1140.99219	1713.16663	137.06731	1021.07977	1697.09460	161.26828	887.19391	1728.97546	114.69948	893.27606	1732.93323	139.35728	824.73395	1275.32178	286.53345	959.93115	1530.60681	317.78448	962.03607	1385.44531	86.99383	1010.20074	1500.14502	97.49218	1014.01447	1243.17419	142.98358	665.78131	1277.27454	64.65794	481.91229	1291.77673	-70.64604	342.24527	1328.40063	-164.29010	134.26140	1382.38379	-200.04787	129.15793	1325.31787	-40.52636	31.26491	1615.21741	297.31418	666.94714	1572.48853	357.21191	469.10919	1579.27954	367.10367	280.77054	1541.84766	388.22437	88.42039	1485.98779	362.23621	36.54475	1549.12390	546.21497	46.65261	1430.77222	140.60797	1773.57361	-3357.48169	2845.73950	1034.07373																											 
138	1.370	1352.34119	272.42609	1741.03467	1494.96924	265.56305	1720.73535	1333.64282	167.08350	1633.97473	1474.18579	149.08969	1609.43750	1404.06543	124.97653	1503.99438	1420.07446	76.47296	1229.59448	1398.87366	264.61850	1439.98828	1409.07227	320.06790	1267.95837	1468.61401	67.79839	1331.82935	1226.67871	202.45599	1479.11157	1140.96069	228.00296	1283.18140	1121.30823	269.56656	1146.58545	1117.40637	343.07761	1034.29907	1158.26672	450.52307	958.59332	1124.85107	412.22504	933.90826	1120.92175	463.96240	894.34528	1594.47778	197.50041	1471.86707	1676.48352	143.60422	1288.66003	1690.27307	141.59966	1141.28638	1714.50610	149.70398	1021.47070	1698.50708	174.61111	887.77319	1730.35022	127.95975	893.63660	1734.40601	152.94397	825.26367	1277.98694	299.15848	960.08478	1532.42310	329.71054	963.49945	1386.38757	99.75148	1011.34052	1501.92505	109.98899	1016.69995	1244.15991	157.00842	665.65662	1276.23621	81.09955	482.27206	1291.36072	-57.92272	346.72787	1327.14587	-157.42906	141.46104	1381.84412	-191.93753	138.13162	1325.02087	-40.41504	31.29247	1615.59668	308.06137	669.21350	1572.42725	370.22372	470.70657	1579.77856	376.38107	281.80792	1542.19849	391.68225	89.83810	1486.09656	362.15503	37.12379	1546.80908	548.10199	44.99266	1433.12305	149.65164	1774.70630	-3360.21289	2845.08008	1034.04248																											 
139	1.380	1354.39526	281.49353	1742.62720	1497.01428	274.59079	1721.91467	1335.42749	176.61700	1635.19482	1475.51819	158.45723	1610.05798	1405.55261	134.82893	1505.11755	1420.77332	87.50982	1230.02686	1400.13000	274.69489	1441.58484	1410.46204	331.16818	1269.80432	1470.29736	78.60415	1332.31262	1227.72351	212.41408	1480.08435	1142.96057	235.25816	1282.77881	1124.16614	274.23798	1145.54456	1119.30261	344.49451	1031.21484	1159.37537	449.50238	952.09045	1126.17053	409.96069	928.78400	1121.86499	460.40637	887.34027	1595.81311	207.85262	1473.08972	1677.94812	155.25296	1289.40051	1691.48877	154.01915	1141.97998	1715.99695	162.92531	1022.49884	1699.85193	188.35432	888.73029	1731.78308	141.70656	894.41278	1735.83545	167.00450	826.12463	1280.94250	311.70538	960.66229	1534.40051	341.25568	965.40552	1386.82764	112.42458	1012.60638	1502.93298	121.18719	1019.92218	1245.17371	171.28964	665.52893	1274.69885	98.88560	482.08438	1291.18091	-43.57334	350.97360	1326.37952	-148.89090	148.98297	1381.93530	-181.90082	147.53494	1324.53149	-39.95797	31.43328	1616.31592	321.76605	671.90375	1572.25635	382.38245	471.79120	1579.85266	383.62186	282.65637	1541.80054	393.58160	89.54953	1486.30859	362.43851	37.37428	1545.88403	549.08038	43.87130	1435.00293	158.52148	1775.45544	-3357.41382	2845.85132	1034.15161																											 
140	1.390	1356.46533	290.55838	1744.16821	1498.93835	283.61411	1723.06140	1337.21191	185.96350	1636.37585	1477.53113	168.12137	1610.91467	1407.02307	144.99576	1505.81165	1421.58179	98.26653	1230.51233	1401.38733	284.83575	1443.17761	1411.77075	342.35632	1271.58411	1471.73767	89.33106	1332.77100	1228.94409	222.41689	1481.23596	1145.03882	242.50668	1282.75757	1127.13013	278.79898	1144.98279	1121.54895	344.58478	1028.41663	1160.44873	447.78650	945.62646	1127.77319	407.22220	923.63586	1122.85645	456.02325	880.62079	1596.94690	218.15347	1474.57727	1679.26819	167.07137	1290.39832	1692.71851	166.70049	1143.05481	1717.14465	176.20218	1023.56537	1701.23633	202.56422	890.11920	1733.28943	155.96286	895.51648	1737.23999	181.57268	827.29120	1284.36926	324.17279	961.66833	1536.57898	352.75778	967.79004	1386.98853	124.73250	1013.75348	1503.76257	132.44514	1022.09418	1246.14124	186.51581	664.90155	1273.19495	117.88185	481.34479	1290.71423	-27.24767	354.54593	1325.84814	-138.29663	156.39026	1382.24548	-170.05507	156.75996	1324.76782	-38.79313	31.45994	1617.21826	337.65479	674.43115	1572.22144	392.84909	472.28262	1579.53235	388.11484	283.10181	1541.32031	394.70898	89.74574	1486.19470	363.29364	37.33284	1546.39734	549.78027	43.10273	1437.13831	167.39142	1776.14941	-3360.28271	2845.20410	1033.91016																											 
